<?xml version="1.0" encoding="UTF-8" standalone="no"?>
<svg
   width="16"
   height="16"
   fill="currentColor"
   class="bi bi-stop"
   viewBox="0 0 16 16"
   version="1.1"
   id="svg4"
   sodipodi:docname="stop.svg"
   inkscape:version="1.2.1 (9c6d41e410, 2022-07-14)"
   xmlns:inkscape="http://www.inkscape.org/namespaces/inkscape"
   xmlns:sodipodi="http://sodipodi.sourceforge.net/DTD/sodipodi-0.dtd"
   xmlns="http://www.w3.org/2000/svg"
   xmlns:svg="http://www.w3.org/2000/svg">
  <defs
     id="defs8" />
  <sodipodi:namedview
     id="namedview6"
     pagecolor="#ffffff"
     bordercolor="#000000"
     borderopacity="0.25"
     inkscape:showpageshadow="2"
     inkscape:pageopacity="0.0"
     inkscape:pagecheckerboard="0"
     inkscape:deskcolor="#d1d1d1"
     showgrid="false"
     inkscape:zoom="64.1875"
     inkscape:cx="8.0155794"
     inkscape:cy="7.9922103"
     inkscape:window-width="3440"
     inkscape:window-height="1371"
     inkscape:window-x="0"
     inkscape:window-y="0"
     inkscape:window-maximized="1"
     inkscape:current-layer="svg4" />
  <path
     d="M 1.7083739,3.7276858 A 2.0972087,2.0972087 0 0 1 3.8055826,1.6304771 h 8.3888344 a 2.0972087,2.0972087 0 0 1 2.097208,2.0972087 v 8.3888352 a 2.0972087,2.0972087 0 0 1 -2.097208,2.097208 H 3.8055826 A 2.0972087,2.0972087 0 0 1 1.7083739,12.116521 Z M 3.8055826,3.0286163 A 0.69906958,0.69906958 0 0 0 3.1065131,3.7276858 v 8.3888352 a 0.69906958,0.69906958 0 0 0 0.6990695,0.699069 h 8.3888344 a 0.69906958,0.69906958 0 0 0 0.69907,-0.699069 V 3.7276858 a 0.69906958,0.69906958 0 0 0 -0.69907,-0.6990695 z"
     id="path2"
     style="stroke-width:1.39814" />
</svg>
