<?xml version="1.0" encoding="utf-8"?>
<!-- Generator: Adobe Illustrator 24.1.1, SVG Export Plug-In . SVG Version: 6.00 Build 0)  -->
<svg version="1.1" id="Layer_1" xmlns="http://www.w3.org/2000/svg" xmlns:xlink="http://www.w3.org/1999/xlink" x="0px" y="0px"
	 viewBox="0 0 512 512" style="enable-background:new 0 0 512 512;" xml:space="preserve">
<style type="text/css">
	.st0{fill:#C2D5D8;}
	.st1{clip-path:url(#SVGID_2_);fill:#CCCCCC;}
	.st2{clip-path:url(#SVGID_4_);fill:#F5F5F5;}
	.st3{clip-path:url(#SVGID_6_);fill:#E6CBC3;}
	.st4{clip-path:url(#SVGID_8_);fill:#D9BFB8;}
	.st5{clip-path:url(#SVGID_10_);fill:#FFE1D9;}
	.st6{clip-path:url(#SVGID_12_);fill:#F2D6CE;}
	.st7{clip-path:url(#SVGID_14_);fill:#1A1A1A;}
	.st8{clip-path:url(#SVGID_16_);fill:#242424;}
	.st9{clip-path:url(#SVGID_18_);fill:#1A1A1A;}
	.st10{clip-path:url(#SVGID_20_);fill:#242424;}
	.st11{clip-path:url(#SVGID_22_);fill:#242424;}
	.st12{clip-path:url(#SVGID_24_);fill:#242424;}
	.st13{clip-path:url(#SVGID_26_);fill:#F5F5F5;}
</style>
<g id="XMLID_1_">
	<ellipse id="XMLID_3_" class="st0" cx="256" cy="271.8" rx="256" ry="240.2"/>
	<g id="XMLID_6_">
		<g>
			<defs>
				<path id="SVGID_1_" d="M352.1,49.6V0H152v52.8C62.2,89.8,0,174.1,0,271.8C0,404.1,115,512,256,512s256-107.1,256-240.2
					C512,170.9,445.8,85.1,352.1,49.6z"/>
			</defs>
			<clipPath id="SVGID_2_">
				<use xlink:href="#SVGID_1_"  style="overflow:visible;"/>
			</clipPath>
			<rect id="XMLID_7_" x="204" y="406.4" class="st1" width="109.5" height="90.6"/>
		</g>
		<g>
			<defs>
				<path id="SVGID_3_" d="M352.1,49.6V0H152v52.8C62.2,89.8,0,174.1,0,271.8C0,404.1,115,512,256,512s256-107.1,256-240.2
					C512,170.9,445.8,85.1,352.1,49.6z"/>
			</defs>
			<clipPath id="SVGID_4_">
				<use xlink:href="#SVGID_3_"  style="overflow:visible;"/>
			</clipPath>
			<polygon id="XMLID_8_" class="st2" points="304,377.3 256,371.8 208,377.3 185.9,391.5 225.3,447.4 256,415.9 285.9,447.4 
				326.1,391.5 			"/>
		</g>
		<g>
			<defs>
				<path id="SVGID_5_" d="M352.1,49.6V0H152v52.8C62.2,89.8,0,174.1,0,271.8C0,404.1,115,512,256,512s256-107.1,256-240.2
					C512,170.9,445.8,85.1,352.1,49.6z"/>
			</defs>
			<clipPath id="SVGID_6_">
				<use xlink:href="#SVGID_5_"  style="overflow:visible;"/>
			</clipPath>
			<path id="XMLID_9_" class="st3" d="M305.6,382L305.6,382l-13.4-42.5l-36.2-2.4l-36.2,2.4L206.4,382l0,0c0,0.8,0,0.8,0,1.6
				c0,8.7,22.1,15.8,49.6,15.8s49.6-7.1,49.6-15.8C305.6,383.6,305.6,382.8,305.6,382z"/>
		</g>
		<g>
			<defs>
				<path id="SVGID_7_" d="M352.1,49.6V0H152v52.8C62.2,89.8,0,174.1,0,271.8C0,404.1,115,512,256,512s256-107.1,256-240.2
					C512,170.9,445.8,85.1,352.1,49.6z"/>
			</defs>
			<clipPath id="SVGID_8_">
				<use xlink:href="#SVGID_7_"  style="overflow:visible;"/>
			</clipPath>
			<path id="XMLID_10_" class="st4" d="M305.6,382L305.6,382l-13.4-42.5l-36.2-2.4l-7.1,0.8l29.1,2.4l13.4,42.5l0,0
				c0,0.8,0,0.8,0,1.6c0,7.9-18.9,15-43.3,15.8c2.4,0,4.7,0,7.1,0c27.6,0,49.6-7.1,49.6-15.8C305.6,383.6,305.6,382.8,305.6,382z"/>
		</g>
		<g>
			<defs>
				<path id="SVGID_9_" d="M352.1,49.6V0H152v52.8C62.2,89.8,0,174.1,0,271.8C0,404.1,115,512,256,512s256-107.1,256-240.2
					C512,170.9,445.8,85.1,352.1,49.6z"/>
			</defs>
			<clipPath id="SVGID_10_">
				<use xlink:href="#SVGID_9_"  style="overflow:visible;"/>
			</clipPath>
			<path id="XMLID_11_" class="st5" d="M360,167.8v-32.3c0-32.3-40.2-67.7-104-67.7s-104,35.4-104,67.7v32.3c0,0-15.8,0.8-15.8,11.8
				v44.9c0,11,3.9,19.7,15.8,19.7c0,54.4,48,115.8,104,115.8s104-62.2,104-115.8c11.8,0,15.8-8.7,15.8-19.7v-44.1
				C375.7,169.4,360,167.8,360,167.8z"/>
		</g>
		<g>
			<defs>
				<path id="SVGID_11_" d="M352.1,49.6V0H152v52.8C62.2,89.8,0,174.1,0,271.8C0,404.1,115,512,256,512s256-107.1,256-240.2
					C512,170.9,445.8,85.1,352.1,49.6z"/>
			</defs>
			<clipPath id="SVGID_12_">
				<use xlink:href="#SVGID_11_"  style="overflow:visible;"/>
			</clipPath>
			<path id="XMLID_12_" class="st6" d="M256,67.7c-2.4,0-3.9,0-6.3,0c76.4,1.6,97.7,26.8,97.7,58.3v41.7v75.6
				c0,52-44.9,111.9-97.7,115.8c2.4,0,3.9,0,6.3,0c55.9,0,104-62.2,104-115.8v-75.6v-19.7C360,115.8,336.3,67.7,256,67.7z"/>
		</g>
		<g>
			<defs>
				<path id="SVGID_13_" d="M352.1,49.6V0H152v52.8C62.2,89.8,0,174.1,0,271.8C0,404.1,115,512,256,512s256-107.1,256-240.2
					C512,170.9,445.8,85.1,352.1,49.6z"/>
			</defs>
			<clipPath id="SVGID_14_">
				<use xlink:href="#SVGID_13_"  style="overflow:visible;"/>
			</clipPath>
			<polygon id="XMLID_13_" class="st7" points="185.9,391.5 256,492.3 256,544.3 60.7,544.3 85.1,421.4 			"/>
		</g>
		<g>
			<defs>
				<path id="SVGID_15_" d="M352.1,49.6V0H152v52.8C62.2,89.8,0,174.1,0,271.8C0,404.1,115,512,256,512s256-107.1,256-240.2
					C512,170.9,445.8,85.1,352.1,49.6z"/>
			</defs>
			<clipPath id="SVGID_16_">
				<use xlink:href="#SVGID_15_"  style="overflow:visible;"/>
			</clipPath>
			<polygon id="XMLID_14_" class="st8" points="208,378.9 157.5,407.2 195.3,416.7 177.2,452.1 256,531.7 256,492.3 			"/>
		</g>
		<g>
			<defs>
				<path id="SVGID_17_" d="M352.1,49.6V0H152v52.8C62.2,89.8,0,174.1,0,271.8C0,404.1,115,512,256,512s256-107.1,256-240.2
					C512,170.9,445.8,85.1,352.1,49.6z"/>
			</defs>
			<clipPath id="SVGID_18_">
				<use xlink:href="#SVGID_17_"  style="overflow:visible;"/>
			</clipPath>
			<polygon id="XMLID_15_" class="st9" points="326.1,391.5 256,492.3 256,544.3 450.6,544.3 426.9,421.4 			"/>
		</g>
		<g>
			<defs>
				<path id="SVGID_19_" d="M352.1,49.6V0H152v52.8C62.2,89.8,0,174.1,0,271.8C0,404.1,115,512,256,512s256-107.1,256-240.2
					C512,170.9,445.8,85.1,352.1,49.6z"/>
			</defs>
			<clipPath id="SVGID_20_">
				<use xlink:href="#SVGID_19_"  style="overflow:visible;"/>
			</clipPath>
			<polygon id="XMLID_16_" class="st10" points="304,377.3 354.5,406.4 316.7,415.9 334.8,451.3 256,531.7 256,492.3 			"/>
		</g>
		<g>
			<defs>
				<path id="SVGID_21_" d="M352.1,49.6V0H152v52.8C62.2,89.8,0,174.1,0,271.8C0,404.1,115,512,256,512s256-107.1,256-240.2
					C512,170.9,445.8,85.1,352.1,49.6z"/>
			</defs>
			<clipPath id="SVGID_22_">
				<use xlink:href="#SVGID_21_"  style="overflow:visible;"/>
			</clipPath>
			<path id="XMLID_17_" class="st11" d="M362.3,160.7L356,156l-14.2,32.3c-3.2-3.9-8.7-6.3-15-7.1c-18.1-1.6-27.6-2.4-44.9-3.2
				c-9.5,0-17.3,5.5-17.3,13.4c0,2.4,0,4.7,0,7.1h-15.8c0-2.4,0-3.9,0-7.1c0-7.1-8.7-13.4-18.1-13.4c-18.1,0.8-27.6,0.8-44.9,3.2
				c-6.3,0.8-12.6,3.9-15,7.1L156,156l-6.3,4.7l18.9,38.6c0,3.9,0,7.1,0,11.8c0,5.5,7.1,11.8,16.5,12.6c18.1,1.6,27.6,2.4,45.7,3.2
				c9.5,0,17.3-5.5,17.3-13.4c0-2.4,0-4.7,0-7.1h15.8c0,2.4,0,4.7,0,7.1c0,7.1,8.7,13.4,17.3,13.4c18.1-0.8,27.6-0.8,45.7-3.2
				c9.5-0.8,16.5-6.3,16.5-12.6c0-5.5,0-8.7,0-12.6L362.3,160.7z"/>
		</g>
		<g>
			<defs>
				<path id="SVGID_23_" d="M352.1,49.6V0H152v52.8C62.2,89.8,0,174.1,0,271.8C0,404.1,115,512,256,512s256-107.1,256-240.2
					C512,170.9,445.8,85.1,352.1,49.6z"/>
			</defs>
			<clipPath id="SVGID_24_">
				<use xlink:href="#SVGID_23_"  style="overflow:visible;"/>
			</clipPath>
			<path id="XMLID_18_" class="st12" d="M360,136.3C360,100.8,337.9,0,311.9,0S265.5,23.6,256,23.6c-9.5,0-29.9-23.6-55.9-23.6
				s-48,100.8-48,136.3c-4.7,0-14.2,10.2-23.6,19.7c19.7,19.7,108.7,19.7,128.4,19.7c19.7,0,108.7,0,128.4-19.7
				C374.2,146.5,364.7,136.3,360,136.3z"/>
		</g>
		<g>
			<defs>
				<path id="SVGID_25_" d="M352.1,49.6V0H152v52.8C62.2,89.8,0,174.1,0,271.8C0,404.1,115,512,256,512s256-107.1,256-240.2
					C512,170.9,445.8,85.1,352.1,49.6z"/>
			</defs>
			<clipPath id="SVGID_26_">
				<use xlink:href="#SVGID_25_"  style="overflow:visible;"/>
			</clipPath>
			<path id="XMLID_19_" class="st13" d="M256,111.9c-14.2,0-66.2,0-100-7.9c-2.4,11.8-3.2,22.8-3.9,30.7c33.9,8.7,89,8.7,104,8.7
				c15,0,70.1,0,104-8.7c0-8.7-1.6-19.7-3.9-30.7C322.2,111.9,270.2,111.9,256,111.9z"/>
		</g>
	</g>
</g>
</svg>
